<svg xmlns="http://www.w3.org/2000/svg" viewBox="0 0 512 512" width="512" height="512" role="img" aria-label="4 Pics 1 Word logo">
  <title>4 Pics 1 Word</title>
  <rect width="256" height="256" x="0"   y="0"   fill="#f59e0b"/>
  <rect width="256" height="256" x="256" y="0"   fill="#3b82f6"/>
  <rect width="256" height="256" x="0"   y="256" fill="#10b981"/>
  <rect width="256" height="256" x="256" y="256" fill="#8b5cf6"/>

  <g transform="translate(48,48)">
    <rect x="24" y="24" width="160" height="112" rx="12" ry="12" fill="#fff" opacity="0.95"/>
    <rect x="40" y="44" width="128" height="72" rx="6" fill="#f3f4f6"/>
    <circle cx="104" cy="136" r="6" fill="#fff"/>
  </g>

  <g transform="translate(312,48)">
    <rect x="24" y="16" width="96" height="192" rx="18" ry="18" fill="#fff" opacity="0.95"/>
    <rect x="36" y="36" width="72" height="152" rx="8" fill="#f3f4f6"/>
    <circle cx="72" cy="176" r="6" fill="#fff"/>
  </g>

  <g transform="translate(48,312)">
    <rect x="16" y="24" width="160" height="96" rx="18" ry="18" fill="#fff" opacity="0.95"/>
    <circle cx="56" cy="72" r="10" fill="#f3f4f6"/>
    <circle cx="112" cy="72" r="8" fill="#f3f4f6"/>
    <rect x="84" y="56" width="8" height="32" rx="2" fill="#f3f4f6"/>
  </g>

  <g transform="translate(312,312)">
    <rect x="8" y="20" width="160" height="96" rx="8" ry="8" fill="#fff" opacity="0.95"/>
    <rect x="20" y="32" width="136" height="64" rx="6" fill="#f3f4f6"/>
    <rect x="0" y="124" width="176" height="12" rx="4" fill="#fff"/>
  </g>

  <rect x="96" y="220" width="320" height="72" rx="8" fill="rgba(0,0,0,0.18)"/>
  <text x="256" y="262" font-family="Inter, Arial, sans-serif" font-size="22" fill="#fff" font-weight="700" text-anchor="middle">4 PICS — 1 WORD</text>
</svg>