<svg viewBox="0 0 200 200" xmlns="http://www.w3.org/2000/svg">
  <!-- Background Circle -->
  <circle cx="100" cy="100" r="95" fill="#0EA5E9" stroke="#0284C7" stroke-width="2"/>
  
  <!-- Grid Container (2x2) -->
  <g id="grid">
    <!-- Top-Left Card -->
    <rect x="45" y="45" width="40" height="40" rx="4" fill="#FFFFFF" stroke="#0284C7" stroke-width="1.5"/>
    <rect x="48" y="48" width="34" height="34" rx="2" fill="#FCA5A5" opacity="0.8"/>
    <circle cx="65" cy="65" r="8" fill="#DC2626" opacity="0.7"/>
    
    <!-- Top-Right Card -->
    <rect x="115" y="45" width="40" height="40" rx="4" fill="#FFFFFF" stroke="#0284C7" stroke-width="1.5"/>
    <rect x="118" y="48" width="34" height="34" rx="2" fill="#BFDBFE" opacity="0.8"/>
    <circle cx="135" cy="65" r="8" fill="#1D4ED8" opacity="0.7"/>
    
    <!-- Bottom-Left Card -->
    <rect x="45" y="115" width="40" height="40" rx="4" fill="#FFFFFF" stroke="#0284C7" stroke-width="1.5"/>
    <rect x="48" y="118" width="34" height="34" rx="2" fill="#FEF3C7" opacity="0.8"/>
    <path d="M 60 130 L 65 125 L 70 130 M 65 125 L 65 138" stroke="#92400E" stroke-width="2" fill="none" stroke-linecap="round"/>
    
    <!-- Bottom-Right Card -->
    <rect x="115" y="115" width="40" height="40" rx="4" fill="#FFFFFF" stroke="#0284C7" stroke-width="1.5"/>
    <rect x="118" y="118" width="34" height="34" rx="2" fill="#D1FAE5" opacity="0.8"/>
    <circle cx="135" cy="135" r="4" fill="#059669" opacity="0.7"/>
    <circle cx="140" cy="130" r="4" fill="#059669" opacity="0.7"/>
    <circle cx="145" cy="135" r="4" fill="#059669" opacity="0.7"/>
  </g>
  
  <!-- Decorative sparkles -->
  <circle cx="30" cy="40" r="3" fill="#FCD34D" opacity="0.8"/>
  <circle cx="170" cy="50" r="2.5" fill="#FCD34D" opacity="0.8"/>
  <circle cx="160" cy="160" r="2.5" fill="#FCD34D" opacity="0.8"/>
  <circle cx="40" cy="170" r="3" fill="#FCD34D" opacity="0.8"/>
</svg>
